{"cells":[{"cell_type":"code","execution_count":null,"metadata":{"colab":{"base_uri":"https://localhost:8080/"},"executionInfo":{"elapsed":628,"status":"ok","timestamp":1739522004971,"user":{"displayName":"Vladimir","userId":"12041452336257983801"},"user_tz":-180},"id":"1U13lrIpXIgM","outputId":"dc4fa3a4-04a8-4308-87d0-d6495ecae8ea"},"outputs":[{"name":"stdout","output_type":"stream","text":["ffprobe version 4.4.2-0ubuntu0.22.04.1 Copyright (c) 2007-2021 the FFmpeg developers\n","  built with gcc 11 (Ubuntu 11.2.0-19ubuntu1)\n","  configuration: --prefix=/usr --extra-version=0ubuntu0.22.04.1 --toolchain=hardened --libdir=/usr/lib/x86_64-linux-gnu --incdir=/usr/include/x86_64-linux-gnu --arch=amd64 --enable-gpl --disable-stripping --enable-gnutls --enable-ladspa --enable-libaom --enable-libass --enable-libbluray --enable-libbs2b --enable-libcaca --enable-libcdio --enable-libcodec2 --enable-libdav1d --enable-libflite --enable-libfontconfig --enable-libfreetype --enable-libfribidi --enable-libgme --enable-libgsm --enable-libjack --enable-libmp3lame --enable-libmysofa --enable-libopenjpeg --enable-libopenmpt --enable-libopus --enable-libpulse --enable-librabbitmq --enable-librubberband --enable-libshine --enable-libsnappy --enable-libsoxr --enable-libspeex --enable-libsrt --enable-libssh --enable-libtheora --enable-libtwolame --enable-libvidstab --enable-libvorbis --enable-libvpx --enable-libwebp --enable-libx265 --enable-libxml2 --enable-libxvid --enable-libzimg --enable-libzmq --enable-libzvbi --enable-lv2 --enable-omx --enable-openal --enable-opencl --enable-opengl --enable-sdl2 --enable-pocketsphinx --enable-librsvg --enable-libmfx --enable-libdc1394 --enable-libdrm --enable-libiec61883 --enable-chromaprint --enable-frei0r --enable-libx264 --enable-shared\n","  libavutil      56. 70.100 / 56. 70.100\n","  libavcodec     58.134.100 / 58.134.100\n","  libavformat    58. 76.100 / 58. 76.100\n","  libavdevice    58. 13.100 / 58. 13.100\n","  libavfilter     7.110.100 /  7.110.100\n","  libswscale      5.  9.100 /  5.  9.100\n","  libswresample   3.  9.100 /  3.  9.100\n","  libpostproc    55.  9.100 / 55.  9.100\n","\u001b[0;35m[mov,mp4,m4a,3gp,3g2,mj2 @ 0x5b352a5ef840] \u001b[0m\u001b[1;31mmoov atom not found\n","\u001b[0m\u001b[1;31mnewsky.mp4: Invalid data found when processing input\n","\u001b[0m"]}],"source":["! ffprobe newsky.mp4"]},{"cell_type":"code","execution_count":null,"metadata":{"colab":{"base_uri":"https://localhost:8080/"},"executionInfo":{"elapsed":479,"status":"ok","timestamp":1739523503797,"user":{"displayName":"Vladimir","userId":"12041452336257983801"},"user_tz":-180},"id":"SuPXdq6kZfcH","outputId":"882f6eeb-5d4d-415b-e3a9-c54abf7c58e4"},"outputs":[{"name":"stdout","output_type":"stream","text":["ffmpeg version 4.4.2-0ubuntu0.22.04.1 Copyright (c) 2000-2021 the FFmpeg developers\n","  built with gcc 11 (Ubuntu 11.2.0-19ubuntu1)\n","  configuration: --prefix=/usr --extra-version=0ubuntu0.22.04.1 --toolchain=hardened --libdir=/usr/lib/x86_64-linux-gnu --incdir=/usr/include/x86_64-linux-gnu --arch=amd64 --enable-gpl --disable-stripping --enable-gnutls --enable-ladspa --enable-libaom --enable-libass --enable-libbluray --enable-libbs2b --enable-libcaca --enable-libcdio --enable-libcodec2 --enable-libdav1d --enable-libflite --enable-libfontconfig --enable-libfreetype --enable-libfribidi --enable-libgme --enable-libgsm --enable-libjack --enable-libmp3lame --enable-libmysofa --enable-libopenjpeg --enable-libopenmpt --enable-libopus --enable-libpulse --enable-librabbitmq --enable-librubberband --enable-libshine --enable-libsnappy --enable-libsoxr --enable-libspeex --enable-libsrt --enable-libssh --enable-libtheora --enable-libtwolame --enable-libvidstab --enable-libvorbis --enable-libvpx --enable-libwebp --enable-libx265 --enable-libxml2 --enable-libxvid --enable-libzimg --enable-libzmq --enable-libzvbi --enable-lv2 --enable-omx --enable-openal --enable-opencl --enable-opengl --enable-sdl2 --enable-pocketsphinx --enable-librsvg --enable-libmfx --enable-libdc1394 --enable-libdrm --enable-libiec61883 --enable-chromaprint --enable-frei0r --enable-libx264 --enable-shared\n","  libavutil      56. 70.100 / 56. 70.100\n","  libavcodec     58.134.100 / 58.134.100\n","  libavformat    58. 76.100 / 58. 76.100\n","  libavdevice    58. 13.100 / 58. 13.100\n","  libavfilter     7.110.100 /  7.110.100\n","  libswscale      5.  9.100 /  5.  9.100\n","  libswresample   3.  9.100 /  3.  9.100\n","  libpostproc    55.  9.100 / 55.  9.100\n","\u001b[0;33mGuessed Channel Layout for Input Stream #0.1 : mono\n","\u001b[0mInput #0, mov,mp4,m4a,3gp,3g2,mj2, from 'input.mp4':\n","  Metadata:\n","    major_brand     : mp42\n","    minor_version   : 0\n","    compatible_brands: mp42isom\n","    creation_time   : 2025-02-14T08:50:37.000000Z\n","  Duration: 00:02:58.17, start: 0.000000, bitrate: 4015 kb/s\n","  Stream #0:0(und): Video: h264 (High) (avc1 / 0x31637661), yuvj420p(pc, bt709), 1920x1080, 3951 kb/s, 25.01 fps, 25 tbr, 90k tbn, 50 tbc (default)\n","    Metadata:\n","      creation_time   : 2025-02-14T08:50:37.000000Z\n","      vendor_id       : [0][0][0][0]\n","      encoder         : JVT/AVC Coding\n","  Stream #0:1(und): Audio: pcm_mulaw (ulaw / 0x77616C75), 8000 Hz, mono, s16, 64 kb/s (default)\n","    Metadata:\n","      creation_time   : 2025-02-14T08:50:37.000000Z\n","      vendor_id       : [0][0][0][0]\n","\u001b[1;35m[mp4 @ 0x59f70fe7a980] \u001b[0m\u001b[1;31mCould not find tag for codec pcm_mulaw in stream #1, codec not currently supported in container\n","\u001b[0m\u001b[1;31mCould not write header for output file #0 (incorrect codec parameters ?): Invalid argument\n","\u001b[0m\u001b[1;31mError initializing output stream 0:1 -- \n","\u001b[0mStream mapping:\n","  Stream #0:0 -\u003e #0:0 (copy)\n","  Stream #0:1 -\u003e #0:1 (copy)\n","    Last message repeated 1 times\r    Last message repeated 1 times\n"]}],"source":["# перенесение moov в начало\n","#! ffmpeg -i input.mp4 -movflags faststart -c copy repaired.mp4\n","#Принудительное декодирование\n","#! ffmpeg -err_detect ignore_err -i repaired.mp4 -c copy repaired1.mp4\n","# Создание нового контейнера\n","! ffmpeg -i input.mp4 -c:v copy -c:a copy repaired.mp4"]},{"cell_type":"code","execution_count":null,"metadata":{"colab":{"base_uri":"https://localhost:8080/"},"executionInfo":{"elapsed":1140582,"status":"ok","timestamp":1739525102788,"user":{"displayName":"Vladimir","userId":"12041452336257983801"},"user_tz":-180},"id":"j5LDtbrYZhMu","outputId":"32b26d48-e227-4ce3-af81-c808c58ea464"},"outputs":[{"name":"stdout","output_type":"stream","text":["ffmpeg version 4.4.2-0ubuntu0.22.04.1 Copyright (c) 2000-2021 the FFmpeg developers\n","  built with gcc 11 (Ubuntu 11.2.0-19ubuntu1)\n","  configuration: --prefix=/usr --extra-version=0ubuntu0.22.04.1 --toolchain=hardened --libdir=/usr/lib/x86_64-linux-gnu --incdir=/usr/include/x86_64-linux-gnu --arch=amd64 --enable-gpl --disable-stripping --enable-gnutls --enable-ladspa --enable-libaom --enable-libass --enable-libbluray --enable-libbs2b --enable-libcaca --enable-libcdio --enable-libcodec2 --enable-libdav1d --enable-libflite --enable-libfontconfig --enable-libfreetype --enable-libfribidi --enable-libgme --enable-libgsm --enable-libjack --enable-libmp3lame --enable-libmysofa --enable-libopenjpeg --enable-libopenmpt --enable-libopus --enable-libpulse --enable-librabbitmq --enable-librubberband --enable-libshine --enable-libsnappy --enable-libsoxr --enable-libspeex --enable-libsrt --enable-libssh --enable-libtheora --enable-libtwolame --enable-libvidstab --enable-libvorbis --enable-libvpx --enable-libwebp --enable-libx265 --enable-libxml2 --enable-libxvid --enable-libzimg --enable-libzmq --enable-libzvbi --enable-lv2 --enable-omx --enable-openal --enable-opencl --enable-opengl --enable-sdl2 --enable-pocketsphinx --enable-librsvg --enable-libmfx --enable-libdc1394 --enable-libdrm --enable-libiec61883 --enable-chromaprint --enable-frei0r --enable-libx264 --enable-shared\n","  libavutil      56. 70.100 / 56. 70.100\n","  libavcodec     58.134.100 / 58.134.100\n","  libavformat    58. 76.100 / 58. 76.100\n","  libavdevice    58. 13.100 / 58. 13.100\n","  libavfilter     7.110.100 /  7.110.100\n","  libswscale      5.  9.100 /  5.  9.100\n","  libswresample   3.  9.100 /  3.  9.100\n","  libpostproc    55.  9.100 / 55.  9.100\n","\u001b[0;33mGuessed Channel Layout for Input Stream #0.1 : mono\n","\u001b[0mInput #0, mov,mp4,m4a,3gp,3g2,mj2, from 'input.mp4':\n","  Metadata:\n","    major_brand     : mp42\n","    minor_version   : 0\n","    compatible_brands: mp42isom\n","    creation_time   : 2025-02-14T08:50:37.000000Z\n","  Duration: 00:02:58.17, start: 0.000000, bitrate: 4015 kb/s\n","  Stream #0:0(und): Video: h264 (High) (avc1 / 0x31637661), yuvj420p(pc, bt709), 1920x1080, 3951 kb/s, 25.01 fps, 25 tbr, 90k tbn, 50 tbc (default)\n","    Metadata:\n","      creation_time   : 2025-02-14T08:50:37.000000Z\n","      vendor_id       : [0][0][0][0]\n","      encoder         : JVT/AVC Coding\n","  Stream #0:1(und): Audio: pcm_mulaw (ulaw / 0x77616C75), 8000 Hz, mono, s16, 64 kb/s (default)\n","    Metadata:\n","      creation_time   : 2025-02-14T08:50:37.000000Z\n","      vendor_id       : [0][0][0][0]\n","Stream mapping:\n","  Stream #0:0 -\u003e #0:0 (h264 (native) -\u003e hevc (libx265))\n","  Stream #0:1 -\u003e #0:1 (copy)\n","Press [q] to stop, [?] for help\n","x265 [info]: HEVC encoder version 3.5+1-f0c1022b6\n","x265 [info]: build info [Linux][GCC 11.2.0][64 bit] 8bit+10bit+12bit\n","x265 [info]: using cpu capabilities: MMX2 SSE2Fast LZCNT SSSE3 SSE4.2 AVX FMA3 BMI2 AVX2\n","x265 [info]: Main profile, Level-4 (Main tier)\n","x265 [info]: Thread pool created using 2 threads\n","x265 [info]: Slices                              : 1\n","x265 [info]: frame threads / pool features       : 1 / wpp(17 rows)\n","x265 [info]: Coding QT: max CU size, min CU size : 64 / 8\n","x265 [info]: Residual QT: max TU size, max depth : 32 / 1 inter / 1 intra\n","x265 [info]: ME / range / subpel / merge         : hex / 57 / 2 / 3\n","x265 [info]: Keyframe min / max / scenecut / bias  : 25 / 250 / 40 / 5.00 \n","x265 [info]: Lookahead / bframes / badapt        : 20 / 4 / 2\n","x265 [info]: b-pyramid / weightp / weightb       : 1 / 1 / 0\n","x265 [info]: References / ref-limit  cu / depth  : 3 / off / on\n","x265 [info]: AQ: mode / str / qg-size / cu-tree  : 2 / 1.0 / 32 / 1\n","x265 [info]: Rate Control / qCompress            : CRF-28.0 / 0.60\n","x265 [info]: tools: rd=3 psy-rd=2.00 early-skip rskip mode=1 signhide tmvp\n","x265 [info]: tools: b-intra strong-intra-smoothing lslices=6 deblock sao\n","Output #0, matroska, to 'output_h265.mkv':\n","  Metadata:\n","    major_brand     : mp42\n","    minor_version   : 0\n","    compatible_brands: mp42isom\n","    encoder         : Lavf58.76.100\n","  Stream #0:0(und): Video: hevc, yuvj420p(pc, bt709, progressive), 1920x1080, q=2-31, 25 fps, 1k tbn (default)\n","    Metadata:\n","      creation_time   : 2025-02-14T08:50:37.000000Z\n","      vendor_id       : [0][0][0][0]\n","      encoder         : Lavc58.134.100 libx265\n","    Side data:\n","      cpb: bitrate max/min/avg: 0/0/0 buffer size: 0 vbv_delay: N/A\n","  Stream #0:1(und): Audio: pcm_mulaw ([7][0][0][0] / 0x0007), 8000 Hz, mono, s16, 64 kb/s (default)\n","    Metadata:\n","      creation_time   : 2025-02-14T08:50:37.000000Z\n","      vendor_id       : [0][0][0][0]\n","frame= 4454 fps=3.9 q=34.5 Lsize=   67922kB time=00:02:58.16 bitrate=3123.1kbits/s speed=0.156x    \n","video:66285kB audio:1392kB subtitle:0kB other streams:0kB global headers:2kB muxing overhead: 0.361862%\n","x265 [info]: frame I:     18, Avg QP:25.37  kb/s: 17036.87\n","x265 [info]: frame P:   1138, Avg QP:27.29  kb/s: 7840.98 \n","x265 [info]: frame B:   3298, Avg QP:33.62  kb/s: 1316.53 \n","x265 [info]: Weighted P-Frames: Y:3.6% UV:1.9%\n","x265 [info]: consecutive B-frames: 5.0% 0.8% 6.2% 79.8% 8.1% \n","\n","encoded 4454 frames in 1139.84s (3.91 fps), 3047.07 kb/s, Avg QP:31.97\n"]}],"source":["! ffmpeg -i input.mp4 -c:v libx265 -crf 28 -preset medium -c:a copy output_h265.mkv"]},{"cell_type":"code","execution_count":null,"metadata":{"colab":{"background_save":true,"base_uri":"https://localhost:8080/"},"id":"vf29gvLZalqh"},"outputs":[{"name":"stdout","output_type":"stream","text":["ffmpeg version 4.4.2-0ubuntu0.22.04.1 Copyright (c) 2000-2021 the FFmpeg developers\n","  built with gcc 11 (Ubuntu 11.2.0-19ubuntu1)\n","  configuration: --prefix=/usr --extra-version=0ubuntu0.22.04.1 --toolchain=hardened --libdir=/usr/lib/x86_64-linux-gnu --incdir=/usr/include/x86_64-linux-gnu --arch=amd64 --enable-gpl --disable-stripping --enable-gnutls --enable-ladspa --enable-libaom --enable-libass --enable-libbluray --enable-libbs2b --enable-libcaca --enable-libcdio --enable-libcodec2 --enable-libdav1d --enable-libflite --enable-libfontconfig --enable-libfreetype --enable-libfribidi --enable-libgme --enable-libgsm --enable-libjack --enable-libmp3lame --enable-libmysofa --enable-libopenjpeg --enable-libopenmpt --enable-libopus --enable-libpulse --enable-librabbitmq --enable-librubberband --enable-libshine --enable-libsnappy --enable-libsoxr --enable-libspeex --enable-libsrt --enable-libssh --enable-libtheora --enable-libtwolame --enable-libvidstab --enable-libvorbis --enable-libvpx --enable-libwebp --enable-libx265 --enable-libxml2 --enable-libxvid --enable-libzimg --enable-libzmq --enable-libzvbi --enable-lv2 --enable-omx --enable-openal --enable-opencl --enable-opengl --enable-sdl2 --enable-pocketsphinx --enable-librsvg --enable-libmfx --enable-libdc1394 --enable-libdrm --enable-libiec61883 --enable-chromaprint --enable-frei0r --enable-libx264 --enable-shared\n","  libavutil      56. 70.100 / 56. 70.100\n","  libavcodec     58.134.100 / 58.134.100\n","  libavformat    58. 76.100 / 58. 76.100\n","  libavdevice    58. 13.100 / 58. 13.100\n","  libavfilter     7.110.100 /  7.110.100\n","  libswscale      5.  9.100 /  5.  9.100\n","  libswresample   3.  9.100 /  3.  9.100\n","  libpostproc    55.  9.100 / 55.  9.100\n","\u001b[0;33mGuessed Channel Layout for Input Stream #0.1 : mono\n","\u001b[0mInput #0, mov,mp4,m4a,3gp,3g2,mj2, from 'input.mp4':\n","  Metadata:\n","    major_brand     : mp42\n","    minor_version   : 0\n","    compatible_brands: mp42isom\n","    creation_time   : 2025-02-14T08:50:37.000000Z\n","  Duration: 00:02:58.17, start: 0.000000, bitrate: 4015 kb/s\n","  Stream #0:0(und): Video: h264 (High) (avc1 / 0x31637661), yuvj420p(pc, bt709), 1920x1080, 3951 kb/s, 25.01 fps, 25 tbr, 90k tbn, 50 tbc (default)\n","    Metadata:\n","      creation_time   : 2025-02-14T08:50:37.000000Z\n","      vendor_id       : [0][0][0][0]\n","      encoder         : JVT/AVC Coding\n","  Stream #0:1(und): Audio: pcm_mulaw (ulaw / 0x77616C75), 8000 Hz, mono, s16, 64 kb/s (default)\n","    Metadata:\n","      creation_time   : 2025-02-14T08:50:37.000000Z\n","      vendor_id       : [0][0][0][0]\n","Stream mapping:\n","  Stream #0:0 -\u003e #0:0 (h264 (native) -\u003e av1 (libaom-av1))\n","  Stream #0:1 -\u003e #0:1 (copy)\n","Press [q] to stop, [?] for help\n","\u001b[1;34m[swscaler @ 0x59fc481a5dc0] \u001b[0m\u001b[0;33mdeprecated pixel format used, make sure you did set range correctly\n","\u001b[0m\u001b[1;36m[libaom-av1 @ 0x59fc47f09440] \u001b[0mv3.3.0\n","Output #0, matroska, to 'output.mkv':\n","  Metadata:\n","    major_brand     : mp42\n","    minor_version   : 0\n","    compatible_brands: mp42isom\n","    encoder         : Lavf58.76.100\n","  Stream #0:0(und): Video: av1 (AV01 / 0x31305641), yuv420p(tv, bt709, progressive), 1920x1080, q=2-31, 2000 kb/s, 25 fps, 1k tbn (default)\n","    Metadata:\n","      creation_time   : 2025-02-14T08:50:37.000000Z\n","      vendor_id       : [0][0][0][0]\n","      encoder         : Lavc58.134.100 libaom-av1\n","    Side data:\n","      cpb: bitrate max/min/avg: 0/0/0 buffer size: 0 vbv_delay: N/A\n","  Stream #0:1(und): Audio: pcm_mulaw ([7][0][0][0] / 0x0007), 8000 Hz, mono, s16, 64 kb/s (default)\n","    Metadata:\n","      creation_time   : 2025-02-14T08:50:37.000000Z\n","      vendor_id       : [0][0][0][0]\n"]}],"source":["!ffmpeg -i input.mp4 -c:v libaom-av1 -b:v 2M -crf 30 -c:a copy output.mkv"]}],"metadata":{"colab":{"authorship_tag":"ABX9TyNMLYVOzs0L/wBQunYmufHt","name":"","version":""},"kernelspec":{"display_name":"Python 3","name":"python3"},"language_info":{"name":"python"}},"nbformat":4,"nbformat_minor":0}